# xmcd CD database file
#
# Track frame offsets:
#	150
#	23480
#	47000
#	62807
#	86552
#	110041
#	136753
#	158742
#	185972
#	216481
#	239023
#	267204
#
# Disc length: 3861 seconds
#
# Revision: 0
# Processed by: cddbd v1.5.2PL0 Copyright (c) Steve Scherf et al.
# Submitted via: CDex 1.70beta2
#
DISCID=ae0f130c
DTITLE=Jennifer Leitham and Jimmy Bruno - Two For The Road
DYEAR=2000
DGENRE=Jazz
TTITLE0=Nostalgia In Times Square
TTITLE1=Manege
TTITLE2=Jumpin' At The Woodside
TTITLE3=The Left Handed Blues
TTITLE4=Out Of This World
TTITLE5=Born To Be Blue
TTITLE6=Ornithology
TTITLE7=Alone Together
TTITLE8=Two For The Road
TTITLE9=Three In One
TTITLE10=Isn't It Romantic
TTITLE11=Bernie's Tune
EXTD=YEAR: 2000
EXTT0=
EXTT1=
EXTT2=
EXTT3=
EXTT4=
EXTT5=
EXTT6=
EXTT7=
EXTT8=
EXTT9=
EXTT10=
EXTT11=
PLAYORDER=
